<?xml version="1.0" encoding="UTF-8"?>
<svg version="1.1" xmlns="http://www.w3.org/2000/svg" width="400" height="400">
<path d="M0 0 C18.48 0 36.96 0 56 0 C56 0.66 56 1.32 56 2 C59.96 2 63.92 2 68 2 C68 2.66 68 3.32 68 4 C70.64 4 73.28 4 76 4 C76 4.66 76 5.32 76 6 C78.64 6 81.28 6 84 6 C84 6.66 84 7.32 84 8 C85.98 8 87.96 8 90 8 C90 8.66 90 9.32 90 10 C91.98 10 93.96 10 96 10 C96 10.66 96 11.32 96 12 C97.98 12 99.96 12 102 12 C102 12.66 102 13.32 102 14 C103.32 14 104.64 14 106 14 C106 14.66 106 15.32 106 16 C107.98 16 109.96 16 112 16 C112 16.66 112 17.32 112 18 C113.32 18 114.64 18 116 18 C116 18.66 116 19.32 116 20 C117.32 20 118.64 20 120 20 C120 20.66 120 21.32 120 22 C121.32 22 122.64 22 124 22 C124 22.66 124 23.32 124 24 C124.66 24 125.32 24 126 24 C126 24.66 126 25.32 126 26 C127.32 26 128.64 26 130 26 C130 26.66 130 27.32 130 28 C131.32 28 132.64 28 134 28 C134 28.66 134 29.32 134 30 C134.66 30 135.32 30 136 30 C136 30.66 136 31.32 136 32 C137.32 32 138.64 32 140 32 C140 32.66 140 33.32 140 34 C140.66 34 141.32 34 142 34 C142 34.66 142 35.32 142 36 C143.32 36 144.64 36 146 36 C146 36.66 146 37.32 146 38 C146.66 38 147.32 38 148 38 C148 38.66 148 39.32 148 40 C149.32 40 150.64 40 152 40 C152 40.66 152 41.32 152 42 C152.66 42 153.32 42 154 42 C154 42.66 154 43.32 154 44 C154.66 44 155.32 44 156 44 C156 44.66 156 45.32 156 46 C156.66 46 157.32 46 158 46 C158 46.66 158 47.32 158 48 C158.66 48 159.32 48 160 48 C160 48.66 160 49.32 160 50 C160.66 50 161.32 50 162 50 C162 50.66 162 51.32 162 52 C163.32 52 164.64 52 166 52 C166 52.66 166 53.32 166 54 C166.66 54 167.32 54 168 54 C168 54.66 168 55.32 168 56 C168.66 56 169.32 56 170 56 C170 56.66 170 57.32 170 58 C170.66 58 171.32 58 172 58 C172 58.66 172 59.32 172 60 C172.66 60 173.32 60 174 60 C174 60.66 174 61.32 174 62 C174.66 62 175.32 62 176 62 C176 62.66 176 63.32 176 64 C176.66 64 177.32 64 178 64 C178 65.32 178 66.64 178 68 C178.66 68 179.32 68 180 68 C180 68.66 180 69.32 180 70 C180.66 70 181.32 70 182 70 C182 70.66 182 71.32 182 72 C182.66 72 183.32 72 184 72 C184 72.66 184 73.32 184 74 C184.66 74 185.32 74 186 74 C186 74.66 186 75.32 186 76 C186.66 76 187.32 76 188 76 C188 77.32 188 78.64 188 80 C188.66 80 189.32 80 190 80 C190 80.66 190 81.32 190 82 C190.66 82 191.32 82 192 82 C192 83.32 192 84.64 192 86 C192.66 86 193.32 86 194 86 C194 86.66 194 87.32 194 88 C194.66 88 195.32 88 196 88 C196 89.32 196 90.64 196 92 C196.66 92 197.32 92 198 92 C198 92.66 198 93.32 198 94 C198.66 94 199.32 94 200 94 C200 95.32 200 96.64 200 98 C200.66 98 201.32 98 202 98 C202 98.66 202 99.32 202 100 C202.66 100 203.32 100 204 100 C204 101.32 204 102.64 204 104 C204.66 104 205.32 104 206 104 C206 105.32 206 106.64 206 108 C206.66 108 207.32 108 208 108 C208 109.32 208 110.64 208 112 C208.66 112 209.32 112 210 112 C210 113.32 210 114.64 210 116 C210.66 116 211.32 116 212 116 C212 117.98 212 119.96 212 122 C212.66 122 213.32 122 214 122 C214 123.32 214 124.64 214 126 C214.66 126 215.32 126 216 126 C216 127.98 216 129.96 216 132 C216.66 132 217.32 132 218 132 C218 133.98 218 135.96 218 138 C218.66 138 219.32 138 220 138 C220 139.98 220 141.96 220 144 C220.66 144 221.32 144 222 144 C222 146.64 222 149.28 222 152 C222.66 152 223.32 152 224 152 C224 154.64 224 157.28 224 160 C224.66 160 225.32 160 226 160 C226 163.96 226 167.92 226 172 C226.66 172 227.32 172 228 172 C228 190.48 228 208.96 228 228 C227.34 228 226.68 228 226 228 C226 231.96 226 235.92 226 240 C225.34 240 224.68 240 224 240 C224 242.64 224 245.28 224 248 C223.34 248 222.68 248 222 248 C222 250.64 222 253.28 222 256 C221.34 256 220.68 256 220 256 C220 257.98 220 259.96 220 262 C219.34 262 218.68 262 218 262 C218 263.98 218 265.96 218 268 C217.34 268 216.68 268 216 268 C216 269.98 216 271.96 216 274 C215.34 274 214.68 274 214 274 C214 275.32 214 276.64 214 278 C213.34 278 212.68 278 212 278 C212 279.98 212 281.96 212 284 C211.34 284 210.68 284 210 284 C210 285.32 210 286.64 210 288 C209.34 288 208.68 288 208 288 C208 289.32 208 290.64 208 292 C207.34 292 206.68 292 206 292 C206 293.32 206 294.64 206 296 C205.34 296 204.68 296 204 296 C204 296.66 204 297.32 204 298 C203.34 298 202.68 298 202 298 C202 299.32 202 300.64 202 302 C201.34 302 200.68 302 200 302 C200 303.32 200 304.64 200 306 C199.34 306 198.68 306 198 306 C198 306.66 198 307.32 198 308 C197.34 308 196.68 308 196 308 C196 309.32 196 310.64 196 312 C195.34 312 194.68 312 194 312 C194 312.66 194 313.32 194 314 C193.34 314 192.68 314 192 314 C192 315.32 192 316.64 192 318 C191.34 318 190.68 318 190 318 C190 318.66 190 319.32 190 320 C189.34 320 188.68 320 188 320 C188 321.32 188 322.64 188 324 C187.34 324 186.68 324 186 324 C186 324.66 186 325.32 186 326 C185.34 326 184.68 326 184 326 C184 326.66 184 327.32 184 328 C183.34 328 182.68 328 182 328 C182 328.66 182 329.32 182 330 C181.34 330 180.68 330 180 330 C180 330.66 180 331.32 180 332 C179.34 332 178.68 332 178 332 C178 332.66 178 333.32 178 334 C177.34 334 176.68 334 176 334 C176 335.32 176 336.64 176 338 C175.34 338 174.68 338 174 338 C174 338.66 174 339.32 174 340 C173.34 340 172.68 340 172 340 C172 340.66 172 341.32 172 342 C171.34 342 170.68 342 170 342 C170 342.66 170 343.32 170 344 C169.34 344 168.68 344 168 344 C168 344.66 168 345.32 168 346 C167.34 346 166.68 346 166 346 C166 346.66 166 347.32 166 348 C165.34 348 164.68 348 164 348 C164 348.66 164 349.32 164 350 C162.68 350 161.36 350 160 350 C160 350.66 160 351.32 160 352 C159.34 352 158.68 352 158 352 C158 352.66 158 353.32 158 354 C157.34 354 156.68 354 156 354 C156 354.66 156 355.32 156 356 C155.34 356 154.68 356 154 356 C154 356.66 154 357.32 154 358 C153.34 358 152.68 358 152 358 C152 358.66 152 359.32 152 360 C150.68 360 149.36 360 148 360 C148 360.66 148 361.32 148 362 C147.34 362 146.68 362 146 362 C146 362.66 146 363.32 146 364 C144.68 364 143.36 364 142 364 C142 364.66 142 365.32 142 366 C141.34 366 140.68 366 140 366 C140 366.66 140 367.32 140 368 C138.68 368 137.36 368 136 368 C136 368.66 136 369.32 136 370 C135.34 370 134.68 370 134 370 C134 370.66 134 371.32 134 372 C132.68 372 131.36 372 130 372 C130 372.66 130 373.32 130 374 C129.34 374 128.68 374 128 374 C128 374.66 128 375.32 128 376 C126.68 376 125.36 376 124 376 C124 376.66 124 377.32 124 378 C122.68 378 121.36 378 120 378 C120 378.66 120 379.32 120 380 C118.68 380 117.36 380 116 380 C116 380.66 116 381.32 116 382 C114.68 382 113.36 382 112 382 C112 382.66 112 383.32 112 384 C110.02 384 108.04 384 106 384 C106 384.66 106 385.32 106 386 C104.68 386 103.36 386 102 386 C102 386.66 102 387.32 102 388 C100.02 388 98.04 388 96 388 C96 388.66 96 389.32 96 390 C94.02 390 92.04 390 90 390 C90 390.66 90 391.32 90 392 C88.02 392 86.04 392 84 392 C84 392.66 84 393.32 84 394 C81.36 394 78.72 394 76 394 C76 394.66 76 395.32 76 396 C73.36 396 70.72 396 68 396 C68 396.66 68 397.32 68 398 C64.04 398 60.08 398 56 398 C56 398.66 56 399.32 56 400 C37.52 400 19.04 400 0 400 C0 399.34 0 398.68 0 398 C-3.96 398 -7.92 398 -12 398 C-12 397.34 -12 396.68 -12 396 C-14.64 396 -17.28 396 -20 396 C-20 395.34 -20 394.68 -20 394 C-22.64 394 -25.28 394 -28 394 C-28 393.34 -28 392.68 -28 392 C-29.98 392 -31.96 392 -34 392 C-34 391.34 -34 390.68 -34 390 C-35.98 390 -37.96 390 -40 390 C-40 389.34 -40 388.68 -40 388 C-41.98 388 -43.96 388 -46 388 C-46 387.34 -46 386.68 -46 386 C-47.32 386 -48.64 386 -50 386 C-50 385.34 -50 384.68 -50 384 C-51.98 384 -53.96 384 -56 384 C-56 383.34 -56 382.68 -56 382 C-57.32 382 -58.64 382 -60 382 C-60 381.34 -60 380.68 -60 380 C-61.32 380 -62.64 380 -64 380 C-64 379.34 -64 378.68 -64 378 C-65.32 378 -66.64 378 -68 378 C-68 377.34 -68 376.68 -68 376 C-68.66 376 -69.32 376 -70 376 C-70 375.34 -70 374.68 -70 374 C-71.32 374 -72.64 374 -74 374 C-74 373.34 -74 372.68 -74 372 C-75.32 372 -76.64 372 -78 372 C-78 371.34 -78 370.68 -78 370 C-78.66 370 -79.32 370 -80 370 C-80 369.34 -80 368.68 -80 368 C-81.32 368 -82.64 368 -84 368 C-84 367.34 -84 366.68 -84 366 C-84.66 366 -85.32 366 -86 366 C-86 365.34 -86 364.68 -86 364 C-87.32 364 -88.64 364 -90 364 C-90 363.34 -90 362.68 -90 362 C-90.66 362 -91.32 362 -92 362 C-92 361.34 -92 360.68 -92 360 C-93.32 360 -94.64 360 -96 360 C-96 359.34 -96 358.68 -96 358 C-96.66 358 -97.32 358 -98 358 C-98 357.34 -98 356.68 -98 356 C-98.66 356 -99.32 356 -100 356 C-100 355.34 -100 354.68 -100 354 C-100.66 354 -101.32 354 -102 354 C-102 353.34 -102 352.68 -102 352 C-102.66 352 -103.32 352 -104 352 C-104 351.34 -104 350.68 -104 350 C-104.66 350 -105.32 350 -106 350 C-106 349.34 -106 348.68 -106 348 C-107.32 348 -108.64 348 -110 348 C-110 347.34 -110 346.68 -110 346 C-110.66 346 -111.32 346 -112 346 C-112 345.34 -112 344.68 -112 344 C-112.66 344 -113.32 344 -114 344 C-114 343.34 -114 342.68 -114 342 C-114.66 342 -115.32 342 -116 342 C-116 341.34 -116 340.68 -116 340 C-116.66 340 -117.32 340 -118 340 C-118 339.34 -118 338.68 -118 338 C-118.66 338 -119.32 338 -120 338 C-120 337.34 -120 336.68 -120 336 C-120.66 336 -121.32 336 -122 336 C-122 334.68 -122 333.36 -122 332 C-122.66 332 -123.32 332 -124 332 C-124 331.34 -124 330.68 -124 330 C-124.66 330 -125.32 330 -126 330 C-126 329.34 -126 328.68 -126 328 C-126.66 328 -127.32 328 -128 328 C-128 327.34 -128 326.68 -128 326 C-128.66 326 -129.32 326 -130 326 C-130 325.34 -130 324.68 -130 324 C-130.66 324 -131.32 324 -132 324 C-132 322.68 -132 321.36 -132 320 C-132.66 320 -133.32 320 -134 320 C-134 319.34 -134 318.68 -134 318 C-134.66 318 -135.32 318 -136 318 C-136 316.68 -136 315.36 -136 314 C-136.66 314 -137.32 314 -138 314 C-138 313.34 -138 312.68 -138 312 C-138.66 312 -139.32 312 -140 312 C-140 310.68 -140 309.36 -140 308 C-140.66 308 -141.32 308 -142 308 C-142 307.34 -142 306.68 -142 306 C-142.66 306 -143.32 306 -144 306 C-144 304.68 -144 303.36 -144 302 C-144.66 302 -145.32 302 -146 302 C-146 301.34 -146 300.68 -146 300 C-146.66 300 -147.32 300 -148 300 C-148 298.68 -148 297.36 -148 296 C-148.66 296 -149.32 296 -150 296 C-150 294.68 -150 293.36 -150 292 C-150.66 292 -151.32 292 -152 292 C-152 290.68 -152 289.36 -152 288 C-152.66 288 -153.32 288 -154 288 C-154 286.68 -154 285.36 -154 284 C-154.66 284 -155.32 284 -156 284 C-156 282.02 -156 280.04 -156 278 C-156.66 278 -157.32 278 -158 278 C-158 276.68 -158 275.36 -158 274 C-158.66 274 -159.32 274 -160 274 C-160 272.02 -160 270.04 -160 268 C-160.66 268 -161.32 268 -162 268 C-162 266.02 -162 264.04 -162 262 C-162.66 262 -163.32 262 -164 262 C-164 260.02 -164 258.04 -164 256 C-164.66 256 -165.32 256 -166 256 C-166 253.36 -166 250.72 -166 248 C-166.66 248 -167.32 248 -168 248 C-168 245.36 -168 242.72 -168 240 C-168.66 240 -169.32 240 -170 240 C-170 236.04 -170 232.08 -170 228 C-170.66 228 -171.32 228 -172 228 C-172 209.52 -172 191.04 -172 172 C-171.34 172 -170.68 172 -170 172 C-170 168.04 -170 164.08 -170 160 C-169.34 160 -168.68 160 -168 160 C-168 157.36 -168 154.72 -168 152 C-167.34 152 -166.68 152 -166 152 C-166 149.36 -166 146.72 -166 144 C-165.34 144 -164.68 144 -164 144 C-164 142.02 -164 140.04 -164 138 C-163.34 138 -162.68 138 -162 138 C-162 136.02 -162 134.04 -162 132 C-161.34 132 -160.68 132 -160 132 C-160 130.02 -160 128.04 -160 126 C-159.34 126 -158.68 126 -158 126 C-158 124.68 -158 123.36 -158 122 C-157.34 122 -156.68 122 -156 122 C-156 120.02 -156 118.04 -156 116 C-155.34 116 -154.68 116 -154 116 C-154 114.68 -154 113.36 -154 112 C-153.34 112 -152.68 112 -152 112 C-152 110.68 -152 109.36 -152 108 C-151.34 108 -150.68 108 -150 108 C-150 106.68 -150 105.36 -150 104 C-149.34 104 -148.68 104 -148 104 C-148 103.34 -148 102.68 -148 102 C-147.34 102 -146.68 102 -146 102 C-146 100.68 -146 99.36 -146 98 C-145.34 98 -144.68 98 -144 98 C-144 96.68 -144 95.36 -144 94 C-143.34 94 -142.68 94 -142 94 C-142 93.34 -142 92.68 -142 92 C-141.34 92 -140.68 92 -140 92 C-140 90.68 -140 89.36 -140 88 C-139.34 88 -138.68 88 -138 88 C-138 87.34 -138 86.68 -138 86 C-137.34 86 -136.68 86 -136 86 C-136 84.68 -136 83.36 -136 82 C-135.34 82 -134.68 82 -134 82 C-134 81.34 -134 80.68 -134 80 C-133.34 80 -132.68 80 -132 80 C-132 78.68 -132 77.36 -132 76 C-131.34 76 -130.68 76 -130 76 C-130 75.34 -130 74.68 -130 74 C-129.34 74 -128.68 74 -128 74 C-128 73.34 -128 72.68 -128 72 C-127.34 72 -126.68 72 -126 72 C-126 71.34 -126 70.68 -126 70 C-125.34 70 -124.68 70 -124 70 C-124 69.34 -124 68.68 -124 68 C-123.34 68 -122.68 68 -122 68 C-122 67.34 -122 66.68 -122 66 C-121.34 66 -120.68 66 -120 66 C-120 64.68 -120 63.36 -120 62 C-119.34 62 -118.68 62 -118 62 C-118 61.34 -118 60.68 -118 60 C-117.34 60 -116.68 60 -116 60 C-116 59.34 -116 58.68 -116 58 C-115.34 58 -114.68 58 -114 58 C-114 57.34 -114 56.68 -114 56 C-113.34 56 -112.68 56 -112 56 C-112 55.34 -112 54.68 -112 54 C-111.34 54 -110.68 54 -110 54 C-110 53.34 -110 52.68 -110 52 C-109.34 52 -108.68 52 -108 52 C-108 51.34 -108 50.68 -108 50 C-106.68 50 -105.36 50 -104 50 C-104 49.34 -104 48.68 -104 48 C-103.34 48 -102.68 48 -102 48 C-102 47.34 -102 46.68 -102 46 C-101.34 46 -100.68 46 -100 46 C-100 45.34 -100 44.68 -100 44 C-99.34 44 -98.68 44 -98 44 C-98 43.34 -98 42.68 -98 42 C-97.34 42 -96.68 42 -96 42 C-96 41.34 -96 40.68 -96 40 C-94.68 40 -93.36 40 -92 40 C-92 39.34 -92 38.68 -92 38 C-91.34 38 -90.68 38 -90 38 C-90 37.34 -90 36.68 -90 36 C-88.68 36 -87.36 36 -86 36 C-86 35.34 -86 34.68 -86 34 C-85.34 34 -84.68 34 -84 34 C-84 33.34 -84 32.68 -84 32 C-82.68 32 -81.36 32 -80 32 C-80 31.34 -80 30.68 -80 30 C-79.34 30 -78.68 30 -78 30 C-78 29.34 -78 28.68 -78 28 C-76.68 28 -75.36 28 -74 28 C-74 27.34 -74 26.68 -74 26 C-73.34 26 -72.68 26 -72 26 C-72 25.34 -72 24.68 -72 24 C-70.68 24 -69.36 24 -68 24 C-68 23.34 -68 22.68 -68 22 C-66.68 22 -65.36 22 -64 22 C-64 21.34 -64 20.68 -64 20 C-62.68 20 -61.36 20 -60 20 C-60 19.34 -60 18.68 -60 18 C-58.68 18 -57.36 18 -56 18 C-56 17.34 -56 16.68 -56 16 C-54.02 16 -52.04 16 -50 16 C-50 15.34 -50 14.68 -50 14 C-48.68 14 -47.36 14 -46 14 C-46 13.34 -46 12.68 -46 12 C-44.02 12 -42.04 12 -40 12 C-40 11.34 -40 10.68 -40 10 C-38.02 10 -36.04 10 -34 10 C-34 9.34 -34 8.68 -34 8 C-32.02 8 -30.04 8 -28 8 C-28 7.34 -28 6.68 -28 6 C-25.36 6 -22.72 6 -20 6 C-20 5.34 -20 4.68 -20 4 C-17.36 4 -14.72 4 -12 4 C-12 3.34 -12 2.68 -12 2 C-8.04 2 -4.08 2 0 2 C0 1.34 0 0.68 0 0 Z M22 20 C22 20.66 22 21.32 22 22 C14.74 22 7.48 22 0 22 C0 22.66 0 23.32 0 24 C-3.3 24 -6.6 24 -10 24 C-10 24.66 -10 25.32 -10 26 C-12.64 26 -15.28 26 -18 26 C-18 26.66 -18 27.32 -18 28 C-20.64 28 -23.28 28 -26 28 C-26 28.66 -26 29.32 -26 30 C-27.98 30 -29.96 30 -32 30 C-32 30.66 -32 31.32 -32 32 C-33.32 32 -34.64 32 -36 32 C-36 32.66 -36 33.32 -36 34 C-37.98 34 -39.96 34 -42 34 C-42 34.66 -42 35.32 -42 36 C-43.32 36 -44.64 36 -46 36 C-46 36.66 -46 37.32 -46 38 C-47.32 38 -48.64 38 -50 38 C-50 38.66 -50 39.32 -50 40 C-51.32 40 -52.64 40 -54 40 C-54 40.66 -54 41.32 -54 42 C-55.32 42 -56.64 42 -58 42 C-58 42.66 -58 43.32 -58 44 C-59.32 44 -60.64 44 -62 44 C-62 44.66 -62 45.32 -62 46 C-62.66 46 -63.32 46 -64 46 C-64 46.66 -64 47.32 -64 48 C-65.32 48 -66.64 48 -68 48 C-68 48.66 -68 49.32 -68 50 C-69.32 50 -70.64 50 -72 50 C-72 50.66 -72 51.32 -72 52 C-72.66 52 -73.32 52 -74 52 C-74 52.66 -74 53.32 -74 54 C-74.66 54 -75.32 54 -76 54 C-76 54.66 -76 55.32 -76 56 C-77.32 56 -78.64 56 -80 56 C-80 56.66 -80 57.32 -80 58 C-80.66 58 -81.32 58 -82 58 C-82 58.66 -82 59.32 -82 60 C-82.66 60 -83.32 60 -84 60 C-84 60.66 -84 61.32 -84 62 C-85.32 62 -86.64 62 -88 62 C-88 62.66 -88 63.32 -88 64 C-88.66 64 -89.32 64 -90 64 C-90 64.66 -90 65.32 -90 66 C-90.66 66 -91.32 66 -92 66 C-92 66.66 -92 67.32 -92 68 C-92.66 68 -93.32 68 -94 68 C-94 68.66 -94 69.32 -94 70 C-94.66 70 -95.32 70 -96 70 C-96 70.66 -96 71.32 -96 72 C-96.66 72 -97.32 72 -98 72 C-98 72.66 -98 73.32 -98 74 C-98.66 74 -99.32 74 -100 74 C-100 74.66 -100 75.32 -100 76 C-100.66 76 -101.32 76 -102 76 C-102 76.66 -102 77.32 -102 78 C-102.66 78 -103.32 78 -104 78 C-104 78.66 -104 79.32 -104 80 C-104.66 80 -105.32 80 -106 80 C-106 80.66 -106 81.32 -106 82 C-106.66 82 -107.32 82 -108 82 C-108 82.66 -108 83.32 -108 84 C-108.66 84 -109.32 84 -110 84 C-110 85.32 -110 86.64 -110 88 C-110.66 88 -111.32 88 -112 88 C-112 88.66 -112 89.32 -112 90 C-112.66 90 -113.32 90 -114 90 C-114 90.66 -114 91.32 -114 92 C-114.66 92 -115.32 92 -116 92 C-116 93.32 -116 94.64 -116 96 C-116.66 96 -117.32 96 -118 96 C-118 96.66 -118 97.32 -118 98 C-118.66 98 -119.32 98 -120 98 C-120 98.66 -120 99.32 -120 100 C-120.66 100 -121.32 100 -122 100 C-122 101.32 -122 102.64 -122 104 C-122.66 104 -123.32 104 -124 104 C-124 105.32 -124 106.64 -124 108 C-124.66 108 -125.32 108 -126 108 C-126 108.66 -126 109.32 -126 110 C-126.66 110 -127.32 110 -128 110 C-128 111.32 -128 112.64 -128 114 C-128.66 114 -129.32 114 -130 114 C-130 115.32 -130 116.64 -130 118 C-130.66 118 -131.32 118 -132 118 C-132 119.32 -132 120.64 -132 122 C-132.66 122 -133.32 122 -134 122 C-134 123.32 -134 124.64 -134 126 C-134.66 126 -135.32 126 -136 126 C-136 127.32 -136 128.64 -136 130 C-136.66 130 -137.32 130 -138 130 C-138 131.98 -138 133.96 -138 136 C-138.66 136 -139.32 136 -140 136 C-140 137.32 -140 138.64 -140 140 C-140.66 140 -141.32 140 -142 140 C-142 141.98 -142 143.96 -142 146 C-142.66 146 -143.32 146 -144 146 C-144 148.64 -144 151.28 -144 154 C-144.66 154 -145.32 154 -146 154 C-146 156.64 -146 159.28 -146 162 C-146.66 162 -147.32 162 -148 162 C-148 165.3 -148 168.6 -148 172 C-148.66 172 -149.32 172 -150 172 C-150 179.26 -150 186.52 -150 194 C-150.66 194 -151.32 194 -152 194 C-152 197.96 -152 201.92 -152 206 C-151.34 206 -150.68 206 -150 206 C-150 213.26 -150 220.52 -150 228 C-149.34 228 -148.68 228 -148 228 C-148 231.3 -148 234.6 -148 238 C-147.34 238 -146.68 238 -146 238 C-146 240.64 -146 243.28 -146 246 C-145.34 246 -144.68 246 -144 246 C-144 248.64 -144 251.28 -144 254 C-143.34 254 -142.68 254 -142 254 C-142 255.98 -142 257.96 -142 260 C-141.34 260 -140.68 260 -140 260 C-140 261.32 -140 262.64 -140 264 C-139.34 264 -138.68 264 -138 264 C-138 265.98 -138 267.96 -138 270 C-137.34 270 -136.68 270 -136 270 C-136 271.32 -136 272.64 -136 274 C-135.34 274 -134.68 274 -134 274 C-134 275.32 -134 276.64 -134 278 C-133.34 278 -132.68 278 -132 278 C-132 279.32 -132 280.64 -132 282 C-131.34 282 -130.68 282 -130 282 C-130 283.32 -130 284.64 -130 286 C-129.34 286 -128.68 286 -128 286 C-128 287.32 -128 288.64 -128 290 C-127.34 290 -126.68 290 -126 290 C-126 290.66 -126 291.32 -126 292 C-125.34 292 -124.68 292 -124 292 C-124 293.32 -124 294.64 -124 296 C-123.34 296 -122.68 296 -122 296 C-122 297.32 -122 298.64 -122 300 C-121.34 300 -120.68 300 -120 300 C-120 300.66 -120 301.32 -120 302 C-119.34 302 -118.68 302 -118 302 C-118 302.66 -118 303.32 -118 304 C-117.34 304 -116.68 304 -116 304 C-116 305.32 -116 306.64 -116 308 C-115.34 308 -114.68 308 -114 308 C-114 308.66 -114 309.32 -114 310 C-113.34 310 -112.68 310 -112 310 C-112 310.66 -112 311.32 -112 312 C-111.34 312 -110.68 312 -110 312 C-110 313.32 -110 314.64 -110 316 C-109.34 316 -108.68 316 -108 316 C-108 316.66 -108 317.32 -108 318 C-107.34 318 -106.68 318 -106 318 C-106 318.66 -106 319.32 -106 320 C-105.34 320 -104.68 320 -104 320 C-104 320.66 -104 321.32 -104 322 C-103.34 322 -102.68 322 -102 322 C-102 322.66 -102 323.32 -102 324 C-101.34 324 -100.68 324 -100 324 C-100 324.66 -100 325.32 -100 326 C-99.34 326 -98.68 326 -98 326 C-98 326.66 -98 327.32 -98 328 C-97.34 328 -96.68 328 -96 328 C-96 328.66 -96 329.32 -96 330 C-95.34 330 -94.68 330 -94 330 C-94 330.66 -94 331.32 -94 332 C-93.34 332 -92.68 332 -92 332 C-92 332.66 -92 333.32 -92 334 C-91.34 334 -90.68 334 -90 334 C-90 334.66 -90 335.32 -90 336 C-89.34 336 -88.68 336 -88 336 C-88 336.66 -88 337.32 -88 338 C-86.68 338 -85.36 338 -84 338 C-84 338.66 -84 339.32 -84 340 C-83.34 340 -82.68 340 -82 340 C-82 340.66 -82 341.32 -82 342 C-81.34 342 -80.68 342 -80 342 C-80 342.66 -80 343.32 -80 344 C-78.68 344 -77.36 344 -76 344 C-76 344.66 -76 345.32 -76 346 C-75.34 346 -74.68 346 -74 346 C-74 346.66 -74 347.32 -74 348 C-73.34 348 -72.68 348 -72 348 C-72 348.66 -72 349.32 -72 350 C-70.68 350 -69.36 350 -68 350 C-68 350.66 -68 351.32 -68 352 C-66.68 352 -65.36 352 -64 352 C-64 352.66 -64 353.32 -64 354 C-63.34 354 -62.68 354 -62 354 C-62 354.66 -62 355.32 -62 356 C-60.68 356 -59.36 356 -58 356 C-58 356.66 -58 357.32 -58 358 C-56.68 358 -55.36 358 -54 358 C-54 358.66 -54 359.32 -54 360 C-52.68 360 -51.36 360 -50 360 C-50 360.66 -50 361.32 -50 362 C-48.68 362 -47.36 362 -46 362 C-46 362.66 -46 363.32 -46 364 C-44.68 364 -43.36 364 -42 364 C-42 364.66 -42 365.32 -42 366 C-40.02 366 -38.04 366 -36 366 C-36 366.66 -36 367.32 -36 368 C-34.68 368 -33.36 368 -32 368 C-32 368.66 -32 369.32 -32 370 C-30.02 370 -28.04 370 -26 370 C-26 370.66 -26 371.32 -26 372 C-23.36 372 -20.72 372 -18 372 C-18 372.66 -18 373.32 -18 374 C-15.36 374 -12.72 374 -10 374 C-10 374.66 -10 375.32 -10 376 C-6.7 376 -3.4 376 0 376 C0 376.66 0 377.32 0 378 C7.26 378 14.52 378 22 378 C22 378.66 22 379.32 22 380 C25.96 380 29.92 380 34 380 C34 379.34 34 378.68 34 378 C41.26 378 48.52 378 56 378 C56 377.34 56 376.68 56 376 C59.3 376 62.6 376 66 376 C66 375.34 66 374.68 66 374 C68.64 374 71.28 374 74 374 C74 373.34 74 372.68 74 372 C76.64 372 79.28 372 82 372 C82 371.34 82 370.68 82 370 C83.98 370 85.96 370 88 370 C88 369.34 88 368.68 88 368 C89.32 368 90.64 368 92 368 C92 367.34 92 366.68 92 366 C93.98 366 95.96 366 98 366 C98 365.34 98 364.68 98 364 C99.32 364 100.64 364 102 364 C102 363.34 102 362.68 102 362 C103.32 362 104.64 362 106 362 C106 361.34 106 360.68 106 360 C107.32 360 108.64 360 110 360 C110 359.34 110 358.68 110 358 C111.32 358 112.64 358 114 358 C114 357.34 114 356.68 114 356 C115.32 356 116.64 356 118 356 C118 355.34 118 354.68 118 354 C118.66 354 119.32 354 120 354 C120 353.34 120 352.68 120 352 C121.32 352 122.64 352 124 352 C124 351.34 124 350.68 124 350 C125.32 350 126.64 350 128 350 C128 349.34 128 348.68 128 348 C128.66 348 129.32 348 130 348 C130 347.34 130 346.68 130 346 C130.66 346 131.32 346 132 346 C132 345.34 132 344.68 132 344 C133.32 344 134.64 344 136 344 C136 343.34 136 342.68 136 342 C136.66 342 137.32 342 138 342 C138 341.34 138 340.68 138 340 C138.66 340 139.32 340 140 340 C140 339.34 140 338.68 140 338 C141.32 338 142.64 338 144 338 C144 337.34 144 336.68 144 336 C144.66 336 145.32 336 146 336 C146 335.34 146 334.68 146 334 C146.66 334 147.32 334 148 334 C148 333.34 148 332.68 148 332 C148.66 332 149.32 332 150 332 C150 331.34 150 330.68 150 330 C150.66 330 151.32 330 152 330 C152 329.34 152 328.68 152 328 C152.66 328 153.32 328 154 328 C154 327.34 154 326.68 154 326 C154.66 326 155.32 326 156 326 C156 325.34 156 324.68 156 324 C156.66 324 157.32 324 158 324 C158 323.34 158 322.68 158 322 C158.66 322 159.32 322 160 322 C160 321.34 160 320.68 160 320 C160.66 320 161.32 320 162 320 C162 319.34 162 318.68 162 318 C162.66 318 163.32 318 164 318 C164 317.34 164 316.68 164 316 C164.66 316 165.32 316 166 316 C166 314.68 166 313.36 166 312 C166.66 312 167.32 312 168 312 C168 311.34 168 310.68 168 310 C168.66 310 169.32 310 170 310 C170 309.34 170 308.68 170 308 C170.66 308 171.32 308 172 308 C172 306.68 172 305.36 172 304 C172.66 304 173.32 304 174 304 C174 303.34 174 302.68 174 302 C174.66 302 175.32 302 176 302 C176 301.34 176 300.68 176 300 C176.66 300 177.32 300 178 300 C178 298.68 178 297.36 178 296 C178.66 296 179.32 296 180 296 C180 294.68 180 293.36 180 292 C180.66 292 181.32 292 182 292 C182 291.34 182 290.68 182 290 C182.66 290 183.32 290 184 290 C184 288.68 184 287.36 184 286 C184.66 286 185.32 286 186 286 C186 284.68 186 283.36 186 282 C186.66 282 187.32 282 188 282 C188 280.68 188 279.36 188 278 C188.66 278 189.32 278 190 278 C190 276.68 190 275.36 190 274 C190.66 274 191.32 274 192 274 C192 272.68 192 271.36 192 270 C192.66 270 193.32 270 194 270 C194 268.02 194 266.04 194 264 C194.66 264 195.32 264 196 264 C196 262.68 196 261.36 196 260 C196.66 260 197.32 260 198 260 C198 258.02 198 256.04 198 254 C198.66 254 199.32 254 200 254 C200 251.36 200 248.72 200 246 C200.66 246 201.32 246 202 246 C202 243.36 202 240.72 202 238 C202.66 238 203.32 238 204 238 C204 234.7 204 231.4 204 228 C204.66 228 205.32 228 206 228 C206 220.74 206 213.48 206 206 C206.66 206 207.32 206 208 206 C208 202.04 208 198.08 208 194 C207.34 194 206.68 194 206 194 C206 186.74 206 179.48 206 172 C205.34 172 204.68 172 204 172 C204 168.7 204 165.4 204 162 C203.34 162 202.68 162 202 162 C202 159.36 202 156.72 202 154 C201.34 154 200.68 154 200 154 C200 151.36 200 148.72 200 146 C199.34 146 198.68 146 198 146 C198 144.02 198 142.04 198 140 C197.34 140 196.68 140 196 140 C196 138.68 196 137.36 196 136 C195.34 136 194.68 136 194 136 C194 134.02 194 132.04 194 130 C193.34 130 192.68 130 192 130 C192 128.68 192 127.36 192 126 C191.34 126 190.68 126 190 126 C190 124.68 190 123.36 190 122 C189.34 122 188.68 122 188 122 C188 120.68 188 119.36 188 118 C187.34 118 186.68 118 186 118 C186 116.68 186 115.36 186 114 C185.34 114 184.68 114 184 114 C184 112.68 184 111.36 184 110 C183.34 110 182.68 110 182 110 C182 109.34 182 108.68 182 108 C181.34 108 180.68 108 180 108 C180 106.68 180 105.36 180 104 C179.34 104 178.68 104 178 104 C178 102.68 178 101.36 178 100 C177.34 100 176.68 100 176 100 C176 99.34 176 98.68 176 98 C175.34 98 174.68 98 174 98 C174 97.34 174 96.68 174 96 C173.34 96 172.68 96 172 96 C172 94.68 172 93.36 172 92 C171.34 92 170.68 92 170 92 C170 91.34 170 90.68 170 90 C169.34 90 168.68 90 168 90 C168 89.34 168 88.68 168 88 C167.34 88 166.68 88 166 88 C166 86.68 166 85.36 166 84 C165.34 84 164.68 84 164 84 C164 83.34 164 82.68 164 82 C163.34 82 162.68 82 162 82 C162 81.34 162 80.68 162 80 C161.34 80 160.68 80 160 80 C160 79.34 160 78.68 160 78 C159.34 78 158.68 78 158 78 C158 77.34 158 76.68 158 76 C157.34 76 156.68 76 156 76 C156 75.34 156 74.68 156 74 C155.34 74 154.68 74 154 74 C154 73.34 154 72.68 154 72 C153.34 72 152.68 72 152 72 C152 71.34 152 70.68 152 70 C151.34 70 150.68 70 150 70 C150 69.34 150 68.68 150 68 C149.34 68 148.68 68 148 68 C148 67.34 148 66.68 148 66 C147.34 66 146.68 66 146 66 C146 65.34 146 64.68 146 64 C145.34 64 144.68 64 144 64 C144 63.34 144 62.68 144 62 C142.68 62 141.36 62 140 62 C140 61.34 140 60.68 140 60 C139.34 60 138.68 60 138 60 C138 59.34 138 58.68 138 58 C137.34 58 136.68 58 136 58 C136 57.34 136 56.68 136 56 C134.68 56 133.36 56 132 56 C132 55.34 132 54.68 132 54 C131.34 54 130.68 54 130 54 C130 53.34 130 52.68 130 52 C129.34 52 128.68 52 128 52 C128 51.34 128 50.68 128 50 C126.68 50 125.36 50 124 50 C124 49.34 124 48.68 124 48 C122.68 48 121.36 48 120 48 C120 47.34 120 46.68 120 46 C119.34 46 118.68 46 118 46 C118 45.34 118 44.68 118 44 C116.68 44 115.36 44 114 44 C114 43.34 114 42.68 114 42 C112.68 42 111.36 42 110 42 C110 41.34 110 40.68 110 40 C108.68 40 107.36 40 106 40 C106 39.34 106 38.68 106 38 C104.68 38 103.36 38 102 38 C102 37.34 102 36.68 102 36 C100.68 36 99.36 36 98 36 C98 35.34 98 34.68 98 34 C96.02 34 94.04 34 92 34 C92 33.34 92 32.68 92 32 C90.68 32 89.36 32 88 32 C88 31.34 88 30.68 88 30 C86.02 30 84.04 30 82 30 C82 29.34 82 28.68 82 28 C79.36 28 76.72 28 74 28 C74 27.34 74 26.68 74 26 C71.36 26 68.72 26 66 26 C66 25.34 66 24.68 66 24 C62.7 24 59.4 24 56 24 C56 23.34 56 22.68 56 22 C48.74 22 41.48 22 34 22 C34 21.34 34 20.68 34 20 C30.04 20 26.08 20 22 20 Z " fill="#5515B5" transform="translate(172,0)"/>
<path d="M0 0 C50.82 0 101.64 0 154 0 C154 0.66 154 1.32 154 2 C155.98 2 157.96 2 160 2 C160 2.66 160 3.32 160 4 C161.32 4 162.64 4 164 4 C164 4.66 164 5.32 164 6 C165.32 6 166.64 6 168 6 C168 6.66 168 7.32 168 8 C168.66 8 169.32 8 170 8 C170 8.66 170 9.32 170 10 C171.32 10 172.64 10 174 10 C174 10.66 174 11.32 174 12 C174.66 12 175.32 12 176 12 C176 12.66 176 13.32 176 14 C176.66 14 177.32 14 178 14 C178 14.66 178 15.32 178 16 C178.66 16 179.32 16 180 16 C180 17.32 180 18.64 180 20 C180.66 20 181.32 20 182 20 C182 20.66 182 21.32 182 22 C182.66 22 183.32 22 184 22 C184 23.32 184 24.64 184 26 C184.66 26 185.32 26 186 26 C186 27.32 186 28.64 186 30 C186.66 30 187.32 30 188 30 C188 32.64 188 35.28 188 38 C188.66 38 189.32 38 190 38 C190 69.02 190 100.04 190 132 C189.34 132 188.68 132 188 132 C188 133.32 188 134.64 188 136 C187.34 136 186.68 136 186 136 C186 136.66 186 137.32 186 138 C185.34 138 184.68 138 184 138 C184 138.66 184 139.32 184 140 C179.38 140 174.76 140 170 140 C170 139.34 170 138.68 170 138 C168.68 138 167.36 138 166 138 C166 137.34 166 136.68 166 136 C165.34 136 164.68 136 164 136 C164 134.02 164 132.04 164 130 C163.34 130 162.68 130 162 130 C162 100.96 162 71.92 162 42 C161.34 42 160.68 42 160 42 C160 40.68 160 39.36 160 38 C159.34 38 158.68 38 158 38 C158 37.34 158 36.68 158 36 C157.34 36 156.68 36 156 36 C156 35.34 156 34.68 156 34 C155.34 34 154.68 34 154 34 C154 33.34 154 32.68 154 32 C153.34 32 152.68 32 152 32 C152 31.34 152 30.68 152 30 C150.68 30 149.36 30 148 30 C148 29.34 148 28.68 148 28 C146.02 28 144.04 28 142 28 C142 27.34 142 26.68 142 26 C99.76 26 57.52 26 14 26 C14 26.66 14 27.32 14 28 C12.02 28 10.04 28 8 28 C8 28.66 8 29.32 8 30 C6.68 30 5.36 30 4 30 C4 30.66 4 31.32 4 32 C3.34 32 2.68 32 2 32 C2 32.66 2 33.32 2 34 C1.34 34 0.68 34 0 34 C0 34.66 0 35.32 0 36 C-0.66 36 -1.32 36 -2 36 C-2 36.66 -2 37.32 -2 38 C-2.66 38 -3.32 38 -4 38 C-4 39.32 -4 40.64 -4 42 C-4.66 42 -5.32 42 -6 42 C-6 90.18 -6 138.36 -6 188 C-5.34 188 -4.68 188 -4 188 C-4 187.34 -4 186.68 -4 186 C-3.34 186 -2.68 186 -2 186 C-2 185.34 -2 184.68 -2 184 C-1.34 184 -0.68 184 0 184 C0 183.34 0 182.68 0 182 C0.66 182 1.32 182 2 182 C2 181.34 2 180.68 2 180 C2.66 180 3.32 180 4 180 C4 179.34 4 178.68 4 178 C4.66 178 5.32 178 6 178 C6 177.34 6 176.68 6 176 C7.32 176 8.64 176 10 176 C10 175.34 10 174.68 10 174 C10.66 174 11.32 174 12 174 C12 173.34 12 172.68 12 172 C12.66 172 13.32 172 14 172 C14 171.34 14 170.68 14 170 C14.66 170 15.32 170 16 170 C16 169.34 16 168.68 16 168 C16.66 168 17.32 168 18 168 C18 167.34 18 166.68 18 166 C18.66 166 19.32 166 20 166 C20 165.34 20 164.68 20 164 C20.66 164 21.32 164 22 164 C22 163.34 22 162.68 22 162 C22.66 162 23.32 162 24 162 C24 161.34 24 160.68 24 160 C55.02 160 86.04 160 118 160 C118 160.66 118 161.32 118 162 C119.32 162 120.64 162 122 162 C122 162.66 122 163.32 122 164 C122.66 164 123.32 164 124 164 C124 165.98 124 167.96 124 170 C124.66 170 125.32 170 126 170 C126 171.98 126 173.96 126 176 C125.34 176 124.68 176 124 176 C124 177.32 124 178.64 124 180 C123.34 180 122.68 180 122 180 C122 180.66 122 181.32 122 182 C121.34 182 120.68 182 120 182 C120 182.66 120 183.32 120 184 C119.34 184 118.68 184 118 184 C118 184.66 118 185.32 118 186 C90.94 186 63.88 186 36 186 C36 186.66 36 187.32 36 188 C35.34 188 34.68 188 34 188 C34 188.66 34 189.32 34 190 C33.34 190 32.68 190 32 190 C32 190.66 32 191.32 32 192 C31.34 192 30.68 192 30 192 C30 192.66 30 193.32 30 194 C29.34 194 28.68 194 28 194 C28 194.66 28 195.32 28 196 C27.34 196 26.68 196 26 196 C26 196.66 26 197.32 26 198 C25.34 198 24.68 198 24 198 C24 198.66 24 199.32 24 200 C23.34 200 22.68 200 22 200 C22 200.66 22 201.32 22 202 C21.34 202 20.68 202 20 202 C20 202.66 20 203.32 20 204 C19.34 204 18.68 204 18 204 C18 204.66 18 205.32 18 206 C17.34 206 16.68 206 16 206 C16 206.66 16 207.32 16 208 C15.34 208 14.68 208 14 208 C14 208.66 14 209.32 14 210 C13.34 210 12.68 210 12 210 C12 210.66 12 211.32 12 212 C11.34 212 10.68 212 10 212 C10 212.66 10 213.32 10 214 C9.34 214 8.68 214 8 214 C8 214.66 8 215.32 8 216 C7.34 216 6.68 216 6 216 C6 216.66 6 217.32 6 218 C5.34 218 4.68 218 4 218 C4 218.66 4 219.32 4 220 C3.34 220 2.68 220 2 220 C2 220.66 2 221.32 2 222 C1.34 222 0.68 222 0 222 C0 222.66 0 223.32 0 224 C-0.66 224 -1.32 224 -2 224 C-2 224.66 -2 225.32 -2 226 C-2.66 226 -3.32 226 -4 226 C-4 226.66 -4 227.32 -4 228 C-4.66 228 -5.32 228 -6 228 C-6 228.66 -6 229.32 -6 230 C-6.66 230 -7.32 230 -8 230 C-8 230.66 -8 231.32 -8 232 C-8.66 232 -9.32 232 -10 232 C-10 232.66 -10 233.32 -10 234 C-11.32 234 -12.64 234 -14 234 C-14 234.66 -14 235.32 -14 236 C-18.62 236 -23.24 236 -28 236 C-28 235.34 -28 234.68 -28 234 C-28.66 234 -29.32 234 -30 234 C-30 233.34 -30 232.68 -30 232 C-30.66 232 -31.32 232 -32 232 C-32 230.68 -32 229.36 -32 228 C-32.66 228 -33.32 228 -34 228 C-34 165.3 -34 102.6 -34 38 C-33.34 38 -32.68 38 -32 38 C-32 35.36 -32 32.72 -32 30 C-31.34 30 -30.68 30 -30 30 C-30 28.68 -30 27.36 -30 26 C-29.34 26 -28.68 26 -28 26 C-28 24.68 -28 23.36 -28 22 C-27.34 22 -26.68 22 -26 22 C-26 21.34 -26 20.68 -26 20 C-25.34 20 -24.68 20 -24 20 C-24 18.68 -24 17.36 -24 16 C-23.34 16 -22.68 16 -22 16 C-22 15.34 -22 14.68 -22 14 C-21.34 14 -20.68 14 -20 14 C-20 13.34 -20 12.68 -20 12 C-19.34 12 -18.68 12 -18 12 C-18 11.34 -18 10.68 -18 10 C-16.68 10 -15.36 10 -14 10 C-14 9.34 -14 8.68 -14 8 C-13.34 8 -12.68 8 -12 8 C-12 7.34 -12 6.68 -12 6 C-10.68 6 -9.36 6 -8 6 C-8 5.34 -8 4.68 -8 4 C-6.68 4 -5.36 4 -4 4 C-4 3.34 -4 2.68 -4 2 C-2.68 2 -1.36 2 0 2 C0 1.34 0 0.68 0 0 Z " fill="#7830E7" transform="translate(122,82)"/>
<path d="M0 0 C3.3 0 6.6 0 10 0 C10 0.66 10 1.32 10 2 C11.32 2 12.64 2 14 2 C14 2.66 14 3.32 14 4 C14.66 4 15.32 4 16 4 C16 4.66 16 5.32 16 6 C16.66 6 17.32 6 18 6 C18 7.32 18 8.64 18 10 C18.66 10 19.32 10 20 10 C20 44.98 20 79.96 20 116 C20.66 116 21.32 116 22 116 C22 115.34 22 114.68 22 114 C22.66 114 23.32 114 24 114 C24 113.34 24 112.68 24 112 C24.66 112 25.32 112 26 112 C26 111.34 26 110.68 26 110 C26.66 110 27.32 110 28 110 C28 109.34 28 108.68 28 108 C28.66 108 29.32 108 30 108 C30 107.34 30 106.68 30 106 C30.66 106 31.32 106 32 106 C32 105.34 32 104.68 32 104 C33.32 104 34.64 104 36 104 C36 103.34 36 102.68 36 102 C36.66 102 37.32 102 38 102 C38 101.34 38 100.68 38 100 C38.66 100 39.32 100 40 100 C40 99.34 40 98.68 40 98 C40.66 98 41.32 98 42 98 C42 97.34 42 96.68 42 96 C42.66 96 43.32 96 44 96 C44 95.34 44 94.68 44 94 C44.66 94 45.32 94 46 94 C46 93.34 46 92.68 46 92 C46.66 92 47.32 92 48 92 C48 91.34 48 90.68 48 90 C48.66 90 49.32 90 50 90 C50 89.34 50 88.68 50 88 C81.02 88 112.04 88 144 88 C144 88.66 144 89.32 144 90 C145.32 90 146.64 90 148 90 C148 90.66 148 91.32 148 92 C148.66 92 149.32 92 150 92 C150 93.98 150 95.96 150 98 C150.66 98 151.32 98 152 98 C152 99.98 152 101.96 152 104 C151.34 104 150.68 104 150 104 C150 105.32 150 106.64 150 108 C149.34 108 148.68 108 148 108 C148 108.66 148 109.32 148 110 C147.34 110 146.68 110 146 110 C146 110.66 146 111.32 146 112 C145.34 112 144.68 112 144 112 C144 112.66 144 113.32 144 114 C116.94 114 89.88 114 62 114 C62 114.66 62 115.32 62 116 C61.34 116 60.68 116 60 116 C60 116.66 60 117.32 60 118 C59.34 118 58.68 118 58 118 C58 118.66 58 119.32 58 120 C57.34 120 56.68 120 56 120 C56 120.66 56 121.32 56 122 C55.34 122 54.68 122 54 122 C54 122.66 54 123.32 54 124 C53.34 124 52.68 124 52 124 C52 124.66 52 125.32 52 126 C51.34 126 50.68 126 50 126 C50 126.66 50 127.32 50 128 C49.34 128 48.68 128 48 128 C48 128.66 48 129.32 48 130 C47.34 130 46.68 130 46 130 C46 130.66 46 131.32 46 132 C45.34 132 44.68 132 44 132 C44 132.66 44 133.32 44 134 C43.34 134 42.68 134 42 134 C42 134.66 42 135.32 42 136 C41.34 136 40.68 136 40 136 C40 136.66 40 137.32 40 138 C39.34 138 38.68 138 38 138 C38 138.66 38 139.32 38 140 C37.34 140 36.68 140 36 140 C36 140.66 36 141.32 36 142 C35.34 142 34.68 142 34 142 C34 142.66 34 143.32 34 144 C33.34 144 32.68 144 32 144 C32 144.66 32 145.32 32 146 C31.34 146 30.68 146 30 146 C30 146.66 30 147.32 30 148 C29.34 148 28.68 148 28 148 C28 148.66 28 149.32 28 150 C27.34 150 26.68 150 26 150 C26 150.66 26 151.32 26 152 C25.34 152 24.68 152 24 152 C24 152.66 24 153.32 24 154 C23.34 154 22.68 154 22 154 C22 154.66 22 155.32 22 156 C21.34 156 20.68 156 20 156 C20 156.66 20 157.32 20 158 C19.34 158 18.68 158 18 158 C18 158.66 18 159.32 18 160 C17.34 160 16.68 160 16 160 C16 160.66 16 161.32 16 162 C14.68 162 13.36 162 12 162 C12 162.66 12 163.32 12 164 C7.38 164 2.76 164 -2 164 C-2 163.34 -2 162.68 -2 162 C-2.66 162 -3.32 162 -4 162 C-4 161.34 -4 160.68 -4 160 C-4.66 160 -5.32 160 -6 160 C-6 158.68 -6 157.36 -6 156 C-6.66 156 -7.32 156 -8 156 C-8 107.82 -8 59.64 -8 10 C-7.34 10 -6.68 10 -6 10 C-6 8.68 -6 7.36 -6 6 C-5.34 6 -4.68 6 -4 6 C-4 5.34 -4 4.68 -4 4 C-3.34 4 -2.68 4 -2 4 C-2 3.34 -2 2.68 -2 2 C-1.34 2 -0.68 2 0 2 C0 1.34 0 0.68 0 0 Z " fill="#3A2063" transform="translate(96,154)"/>
<path d="M0 0 C3.96 0 7.92 0 12 0 C12 0.66 12 1.32 12 2 C12.66 2 13.32 2 14 2 C14 2.66 14 3.32 14 4 C14.66 4 15.32 4 16 4 C16 4.66 16 5.32 16 6 C16.66 6 17.32 6 18 6 C18 6.66 18 7.32 18 8 C18.66 8 19.32 8 20 8 C20 25.16 20 42.32 20 60 C19.34 60 18.68 60 18 60 C18 61.32 18 62.64 18 64 C17.34 64 16.68 64 16 64 C16 64.66 16 65.32 16 66 C15.34 66 14.68 66 14 66 C14 66.66 14 67.32 14 68 C9.38 68 4.76 68 0 68 C0 67.34 0 66.68 0 66 C-1.32 66 -2.64 66 -4 66 C-4 65.34 -4 64.68 -4 64 C-4.66 64 -5.32 64 -6 64 C-6 62.02 -6 60.04 -6 58 C-6.66 58 -7.32 58 -8 58 C-8 42.16 -8 26.32 -8 10 C-7.34 10 -6.68 10 -6 10 C-6 8.68 -6 7.36 -6 6 C-5.34 6 -4.68 6 -4 6 C-4 5.34 -4 4.68 -4 4 C-3.34 4 -2.68 4 -2 4 C-2 3.34 -2 2.68 -2 2 C-1.34 2 -0.68 2 0 2 C0 1.34 0 0.68 0 0 Z " fill="#3B2064" transform="translate(292,154)"/>
<path d="M0 0 C1.98 0 3.96 0 6 0 C6 0.66 6 1.32 6 2 C6.66 2 7.32 2 8 2 C8 2.66 8 3.32 8 4 C8.66 4 9.32 4 10 4 C10 4.66 10 5.32 10 6 C10.66 6 11.32 6 12 6 C12 6.66 12 7.32 12 8 C12.66 8 13.32 8 14 8 C14 8.66 14 9.32 14 10 C14.66 10 15.32 10 16 10 C16 10.66 16 11.32 16 12 C16.66 12 17.32 12 18 12 C18 12.66 18 13.32 18 14 C18.66 14 19.32 14 20 14 C20 14.66 20 15.32 20 16 C20.66 16 21.32 16 22 16 C22 16.66 22 17.32 22 18 C22.66 18 23.32 18 24 18 C24 18.66 24 19.32 24 20 C25.32 20 26.64 20 28 20 C28 20.66 28 21.32 28 22 C30.64 22 33.28 22 36 22 C36 21.34 36 20.68 36 20 C37.32 20 38.64 20 40 20 C40 19.34 40 18.68 40 18 C40.66 18 41.32 18 42 18 C42 17.34 42 16.68 42 16 C42.66 16 43.32 16 44 16 C44 15.34 44 14.68 44 14 C44.66 14 45.32 14 46 14 C46 13.34 46 12.68 46 12 C46.66 12 47.32 12 48 12 C48 11.34 48 10.68 48 10 C48.66 10 49.32 10 50 10 C50 9.34 50 8.68 50 8 C50.66 8 51.32 8 52 8 C52 7.34 52 6.68 52 6 C52.66 6 53.32 6 54 6 C54 5.34 54 4.68 54 4 C54.66 4 55.32 4 56 4 C56 3.34 56 2.68 56 2 C56.66 2 57.32 2 58 2 C58 1.34 58 0.68 58 0 C59.98 0 61.96 0 64 0 C64 0.66 64 1.32 64 2 C64.66 2 65.32 2 66 2 C66 3.98 66 5.96 66 8 C65.34 8 64.68 8 64 8 C64 8.66 64 9.32 64 10 C63.34 10 62.68 10 62 10 C62 10.66 62 11.32 62 12 C61.34 12 60.68 12 60 12 C60 12.66 60 13.32 60 14 C59.34 14 58.68 14 58 14 C58 14.66 58 15.32 58 16 C57.34 16 56.68 16 56 16 C56 16.66 56 17.32 56 18 C55.34 18 54.68 18 54 18 C54 18.66 54 19.32 54 20 C53.34 20 52.68 20 52 20 C52 20.66 52 21.32 52 22 C51.34 22 50.68 22 50 22 C50 22.66 50 23.32 50 24 C49.34 24 48.68 24 48 24 C48 24.66 48 25.32 48 26 C47.34 26 46.68 26 46 26 C46 26.66 46 27.32 46 28 C45.34 28 44.68 28 44 28 C44 28.66 44 29.32 44 30 C42.68 30 41.36 30 40 30 C40 30.66 40 31.32 40 32 C35.38 32 30.76 32 26 32 C26 31.34 26 30.68 26 30 C24.68 30 23.36 30 22 30 C22 29.34 22 28.68 22 28 C20.68 28 19.36 28 18 28 C18 27.34 18 26.68 18 26 C17.34 26 16.68 26 16 26 C16 25.34 16 24.68 16 24 C15.34 24 14.68 24 14 24 C14 23.34 14 22.68 14 22 C13.34 22 12.68 22 12 22 C12 21.34 12 20.68 12 20 C11.34 20 10.68 20 10 20 C10 19.34 10 18.68 10 18 C9.34 18 8.68 18 8 18 C8 17.34 8 16.68 8 16 C7.34 16 6.68 16 6 16 C6 15.34 6 14.68 6 14 C5.34 14 4.68 14 4 14 C4 13.34 4 12.68 4 12 C3.34 12 2.68 12 2 12 C2 11.34 2 10.68 2 10 C1.34 10 0.68 10 0 10 C0 9.34 0 8.68 0 8 C-0.66 8 -1.32 8 -2 8 C-2 6.02 -2 4.04 -2 2 C-1.34 2 -0.68 2 0 2 C0 1.34 0 0.68 0 0 Z " fill="#522393" transform="translate(168,140)"/>
<path d="M0 0 C5.28 0 10.56 0 16 0 C16 0.66 16 1.32 16 2 C17.32 2 18.64 2 20 2 C20 2.66 20 3.32 20 4 C20.66 4 21.32 4 22 4 C22 4.66 22 5.32 22 6 C22.66 6 23.32 6 24 6 C24 6.66 24 7.32 24 8 C24.66 8 25.32 8 26 8 C26 8.66 26 9.32 26 10 C26.66 10 27.32 10 28 10 C28 10.66 28 11.32 28 12 C28.66 12 29.32 12 30 12 C30 12.66 30 13.32 30 14 C30.66 14 31.32 14 32 14 C32 14.66 32 15.32 32 16 C32.66 16 33.32 16 34 16 C34 16.66 34 17.32 34 18 C34.66 18 35.32 18 36 18 C36 18.66 36 19.32 36 20 C36.66 20 37.32 20 38 20 C38 20.66 38 21.32 38 22 C38.66 22 39.32 22 40 22 C40 22.66 40 23.32 40 24 C40.66 24 41.32 24 42 24 C42 25.98 42 27.96 42 30 C41.34 30 40.68 30 40 30 C40 30.66 40 31.32 40 32 C38.02 32 36.04 32 34 32 C34 31.34 34 30.68 34 30 C33.34 30 32.68 30 32 30 C32 29.34 32 28.68 32 28 C31.34 28 30.68 28 30 28 C30 27.34 30 26.68 30 26 C29.34 26 28.68 26 28 26 C28 25.34 28 24.68 28 24 C27.34 24 26.68 24 26 24 C26 23.34 26 22.68 26 22 C25.34 22 24.68 22 24 22 C24 21.34 24 20.68 24 20 C23.34 20 22.68 20 22 20 C22 19.34 22 18.68 22 18 C21.34 18 20.68 18 20 18 C20 17.34 20 16.68 20 16 C19.34 16 18.68 16 18 16 C18 15.34 18 14.68 18 14 C17.34 14 16.68 14 16 14 C16 13.34 16 12.68 16 12 C15.34 12 14.68 12 14 12 C14 11.34 14 10.68 14 10 C10.7 10 7.4 10 4 10 C4 10.66 4 11.32 4 12 C2.68 12 1.36 12 0 12 C0 12.66 0 13.32 0 14 C-0.66 14 -1.32 14 -2 14 C-2 14.66 -2 15.32 -2 16 C-2.66 16 -3.32 16 -4 16 C-4 16.66 -4 17.32 -4 18 C-4.66 18 -5.32 18 -6 18 C-6 18.66 -6 19.32 -6 20 C-6.66 20 -7.32 20 -8 20 C-8 20.66 -8 21.32 -8 22 C-8.66 22 -9.32 22 -10 22 C-10 22.66 -10 23.32 -10 24 C-10.66 24 -11.32 24 -12 24 C-12 24.66 -12 25.32 -12 26 C-12.66 26 -13.32 26 -14 26 C-14 26.66 -14 27.32 -14 28 C-14.66 28 -15.32 28 -16 28 C-16 28.66 -16 29.32 -16 30 C-16.66 30 -17.32 30 -18 30 C-18 30.66 -18 31.32 -18 32 C-19.32 32 -20.64 32 -22 32 C-22 31.34 -22 30.68 -22 30 C-22.66 30 -23.32 30 -24 30 C-24 29.34 -24 28.68 -24 28 C-24.66 28 -25.32 28 -26 28 C-26 26.68 -26 25.36 -26 24 C-25.34 24 -24.68 24 -24 24 C-24 23.34 -24 22.68 -24 22 C-23.34 22 -22.68 22 -22 22 C-22 21.34 -22 20.68 -22 20 C-21.34 20 -20.68 20 -20 20 C-20 19.34 -20 18.68 -20 18 C-19.34 18 -18.68 18 -18 18 C-18 17.34 -18 16.68 -18 16 C-17.34 16 -16.68 16 -16 16 C-16 15.34 -16 14.68 -16 14 C-15.34 14 -14.68 14 -14 14 C-14 13.34 -14 12.68 -14 12 C-13.34 12 -12.68 12 -12 12 C-12 11.34 -12 10.68 -12 10 C-11.34 10 -10.68 10 -10 10 C-10 9.34 -10 8.68 -10 8 C-9.34 8 -8.68 8 -8 8 C-8 7.34 -8 6.68 -8 6 C-7.34 6 -6.68 6 -6 6 C-6 5.34 -6 4.68 -6 4 C-5.34 4 -4.68 4 -4 4 C-4 3.34 -4 2.68 -4 2 C-2.68 2 -1.36 2 0 2 C0 1.34 0 0.68 0 0 Z " fill="#522393" transform="translate(192,176)"/>
<path d="M0 0 C5.28 0 10.56 0 16 0 C16 1.98 16 3.96 16 6 C15.34 6 14.68 6 14 6 C14 6.66 14 7.32 14 8 C10.04 8 6.08 8 2 8 C2 8.66 2 9.32 2 10 C1.34 10 0.68 10 0 10 C0 12.64 0 15.28 0 18 C0.66 18 1.32 18 2 18 C2 18.66 2 19.32 2 20 C6.62 20 11.24 20 16 20 C16 21.98 16 23.96 16 26 C15.34 26 14.68 26 14 26 C14 26.66 14 27.32 14 28 C10.04 28 6.08 28 2 28 C2 27.34 2 26.68 2 26 C0.68 26 -0.64 26 -2 26 C-2 25.34 -2 24.68 -2 24 C-2.66 24 -3.32 24 -4 24 C-4 23.34 -4 22.68 -4 22 C-4.66 22 -5.32 22 -6 22 C-6 20.68 -6 19.36 -6 18 C-6.66 18 -7.32 18 -8 18 C-8 15.36 -8 12.72 -8 10 C-7.34 10 -6.68 10 -6 10 C-6 8.68 -6 7.36 -6 6 C-5.34 6 -4.68 6 -4 6 C-4 5.34 -4 4.68 -4 4 C-3.34 4 -2.68 4 -2 4 C-2 3.34 -2 2.68 -2 2 C-1.34 2 -0.68 2 0 2 C0 1.34 0 0.68 0 0 Z " fill="#3A2064" transform="translate(272,240)"/>
<path d="M0 0 C4.62 0 9.24 0 14 0 C14 0.66 14 1.32 14 2 C15.32 2 16.64 2 18 2 C18 2.66 18 3.32 18 4 C18.66 4 19.32 4 20 4 C20 5.32 20 6.64 20 8 C20.66 8 21.32 8 22 8 C22 11.96 22 15.92 22 20 C21.34 20 20.68 20 20 20 C20 21.32 20 22.64 20 24 C19.34 24 18.68 24 18 24 C18 24.66 18 25.32 18 26 C16.68 26 15.36 26 14 26 C14 26.66 14 27.32 14 28 C9.38 28 4.76 28 0 28 C0 25.36 0 22.72 0 20 C4.62 20 9.24 20 14 20 C14 18.68 14 17.36 14 16 C14.66 16 15.32 16 16 16 C16 14.02 16 12.04 16 10 C15.34 10 14.68 10 14 10 C14 9.34 14 8.68 14 8 C9.38 8 4.76 8 0 8 C0 5.36 0 2.72 0 0 Z " fill="#3A2063" transform="translate(290,240)"/>
<path d="M0 0 C6.6 0 13.2 0 20 0 C20 2.64 20 5.28 20 8 C13.4 8 6.8 8 0 8 C0 5.36 0 2.72 0 0 Z " fill="#3A2063" transform="translate(278,250)"/>
</svg>
